<svg width="194" height="48" viewBox="0 0 194 48" fill="none" xmlns="http://www.w3.org/2000/svg">
<path d="M0.5 5.06935C0.884009 3.99255 1.54137 3.03245 2.40878 2.28202C3.12995 1.66442 3.97063 1.19968 4.87922 0.91626V17.8631C4.91919 18.4105 4.91919 18.9602 4.87922 19.5077C4.79637 20.0636 4.67441 20.6132 4.51426 21.1523C4.65462 20.6505 4.82321 20.1209 5.01972 19.5356C5.17389 19.0008 5.41064 18.493 5.72155 18.0303C6.64579 16.5481 7.99481 15.3738 9.59564 14.6577C11.1297 13.9645 12.7948 13.6034 14.4803 13.5986C15.8265 13.5698 17.1584 13.8765 18.3544 14.4905C19.458 15.0601 20.4177 15.87 21.1617 16.8597C21.9203 17.8988 22.4728 19.0717 22.7898 20.3159C23.1548 21.6538 11.9818 24.9151 11.9818 26.3645V45.5135C10.7813 44.5121 9.77294 43.3033 9.00588 41.9456C8.35256 40.79 7.88828 39.5386 7.63032 38.2384C7.61754 38.118 7.61754 37.9967 7.63032 37.8762V26.3645C7.63032 24.3019 18.4947 20.7898 17.5402 19.4798C17.0323 18.8511 16.3793 18.3532 15.6366 18.0281C14.8938 17.703 14.0831 17.5604 13.273 17.6123C12.4896 17.642 11.7145 17.7827 10.9712 18.0303C9.93334 18.3303 8.97483 18.8538 8.16389 19.5635C7.19909 20.4498 6.42534 21.5213 5.88981 22.7132C5.1795 24.3281 4.84378 26.0807 4.90732 27.8417V34.3921C4.90732 34.8578 4.72085 35.3043 4.38917 35.6336C4.0575 35.9629 3.60777 36.1479 3.1387 36.1479H2.32447C1.85279 36.148 1.40021 35.9639 1.06407 35.6353C0.727919 35.3068 0.535128 34.8603 0.527758 34.3921L0.5 5.06935Z" fill="black"/>
<path d="M35.2491 42.8721C34.8721 43.9677 34.2133 44.943 33.34 45.6987C32.6261 46.3355 31.7831 46.8081 30.8695 47.0837V29.8982C30.8639 29.3391 30.911 28.7806 31.01 28.2305C31.087 27.6679 31.1995 27.111 31.3469 26.5629L30.8695 28.2022C30.7062 28.7459 30.46 29.261 30.1396 29.7286C29.2157 31.2389 27.8674 32.4389 26.2655 33.177C24.7304 33.8736 23.0646 34.2302 21.3808 34.2228C20.0347 34.252 18.7027 33.941 17.5067 33.3183C16.3969 32.75 15.4353 31.927 14.6994 30.9157C13.952 29.8554 13.4006 28.6681 13.0713 27.4108C12.7064 26.0541 23.8794 22.747 23.8794 21.2772V1.8584C25.0877 2.86603 26.0973 4.09343 26.8553 5.47651C27.5219 6.67518 27.9957 7.97262 28.2589 9.32062V21.2772C28.2589 23.3688 17.3946 26.9303 18.3772 28.2588C18.8805 28.9033 19.532 29.415 20.2753 29.7499C21.0186 30.0847 21.8316 30.2325 22.6443 30.1808C23.4183 30.148 24.1837 30.0054 24.9181 29.7569C25.9522 29.4298 26.908 28.8909 27.7254 28.174C28.7014 27.29 29.4853 26.2119 30.0275 25.0081C30.7113 23.3532 31.0366 21.5706 30.9819 19.779V12.543C30.9819 12.2581 31.0944 11.985 31.2945 11.7835C31.4945 11.5821 31.7658 11.4688 32.0487 11.4688H34.2947C34.5776 11.4688 34.8489 11.5821 35.049 11.7835C35.249 11.985 35.3612 12.2581 35.3612 12.543L35.2491 42.8721Z" fill="black"/>
<path d="M61.1426 36.9163H55.5703L55.6055 32.803H61.1426C62.5254 32.803 63.6914 32.4924 64.6406 31.8713C65.5898 31.2385 66.3047 30.3186 66.7852 29.1116C67.2773 27.9045 67.5234 26.4456 67.5234 24.7346V23.4866C67.5234 22.1741 67.3828 21.0198 67.1016 20.0237C66.832 19.0276 66.4277 18.1897 65.8887 17.51C65.3496 16.8303 64.6875 16.3206 63.9023 15.9807C63.1172 15.6292 62.2148 15.4534 61.1953 15.4534H55.4648V11.3225H61.1953C62.9062 11.3225 64.4707 11.6155 65.8887 12.2014C67.3184 12.7756 68.5547 13.6018 69.5977 14.6799C70.6406 15.7581 71.4434 17.0471 72.0059 18.5471C72.5801 20.0354 72.8672 21.6936 72.8672 23.5217V24.7346C72.8672 26.551 72.5801 28.2092 72.0059 29.7092C71.4434 31.2092 70.6406 32.4983 69.5977 33.5764C68.5664 34.6428 67.3301 35.469 65.8887 36.0549C64.459 36.6292 62.877 36.9163 61.1426 36.9163ZM58.5586 11.3225V36.9163H53.2852V11.3225H58.5586ZM81.4453 22.0452V36.9163H76.3828V17.8967H81.1465L81.4453 22.0452ZM87.1758 17.7737L87.0879 22.467C86.8418 22.4319 86.543 22.4026 86.1914 22.3792C85.8516 22.344 85.541 22.3264 85.2598 22.3264C84.5449 22.3264 83.9238 22.4202 83.3965 22.6077C82.8809 22.7834 82.4473 23.0471 82.0957 23.3987C81.7559 23.7502 81.498 24.178 81.3223 24.6819C81.1582 25.1858 81.0645 25.76 81.041 26.4045L80.0215 26.0881C80.0215 24.8577 80.1445 23.7268 80.3906 22.6956C80.6367 21.6526 80.9941 20.7444 81.4629 19.9709C81.9434 19.1975 82.5293 18.5999 83.2207 18.178C83.9121 17.7561 84.7031 17.5452 85.5938 17.5452C85.875 17.5452 86.1621 17.5686 86.4551 17.6155C86.748 17.6506 86.9883 17.7034 87.1758 17.7737ZM97.9688 37.2678C96.4922 37.2678 95.168 37.0334 93.9961 36.5647C92.8242 36.0842 91.8281 35.4221 91.0078 34.5784C90.1992 33.7346 89.5781 32.7561 89.1445 31.6428C88.7109 30.5178 88.4941 29.3225 88.4941 28.0569V27.3538C88.4941 25.9124 88.6992 24.594 89.1094 23.3987C89.5195 22.2034 90.1055 21.1663 90.8672 20.2874C91.6406 19.4084 92.5781 18.7346 93.6797 18.2659C94.7812 17.7854 96.0234 17.5452 97.4062 17.5452C98.7539 17.5452 99.9492 17.7678 100.992 18.2131C102.035 18.6584 102.908 19.2913 103.611 20.1116C104.326 20.9319 104.865 21.9163 105.229 23.0647C105.592 24.2014 105.773 25.467 105.773 26.8616V28.9709H90.6562V25.5959H100.799V25.2092C100.799 24.5061 100.67 23.8792 100.412 23.3284C100.166 22.7659 99.791 22.3206 99.2871 21.9924C98.7832 21.6643 98.1387 21.5002 97.3535 21.5002C96.6855 21.5002 96.1113 21.6467 95.6309 21.9397C95.1504 22.2327 94.7578 22.6428 94.4531 23.1702C94.1602 23.6975 93.9375 24.3186 93.7852 25.0334C93.6445 25.7366 93.5742 26.51 93.5742 27.3538V28.0569C93.5742 28.8186 93.6797 29.5217 93.8906 30.1663C94.1133 30.8108 94.4238 31.3674 94.8223 31.8362C95.2324 32.3049 95.7246 32.6682 96.2988 32.926C96.8848 33.1838 97.5469 33.3127 98.2852 33.3127C99.1992 33.3127 100.049 33.137 100.834 32.7854C101.631 32.4221 102.316 31.8772 102.891 31.1506L105.352 33.8225C104.953 34.3967 104.408 34.9475 103.717 35.4749C103.037 36.0022 102.217 36.4358 101.256 36.7756C100.295 37.1038 99.1992 37.2678 97.9688 37.2678ZM118.939 31.6604C118.939 31.2971 118.834 30.969 118.623 30.676C118.412 30.3831 118.02 30.1135 117.445 29.8674C116.883 29.6096 116.068 29.3752 115.002 29.1643C114.041 28.9534 113.145 28.6897 112.312 28.3733C111.492 28.0452 110.777 27.6526 110.168 27.1956C109.57 26.7385 109.102 26.1995 108.762 25.5784C108.422 24.9456 108.252 24.2249 108.252 23.4163C108.252 22.6194 108.422 21.8694 108.762 21.1663C109.113 20.4631 109.611 19.842 110.256 19.303C110.912 18.7522 111.709 18.3245 112.646 18.0198C113.596 17.7034 114.662 17.5452 115.846 17.5452C117.498 17.5452 118.916 17.8088 120.1 18.3362C121.295 18.8635 122.209 19.5901 122.842 20.5159C123.486 21.4299 123.809 22.4729 123.809 23.6448H118.746C118.746 23.1526 118.641 22.7131 118.43 22.3264C118.23 21.928 117.914 21.6174 117.48 21.3948C117.059 21.1604 116.508 21.0432 115.828 21.0432C115.266 21.0432 114.779 21.1428 114.369 21.342C113.959 21.5295 113.643 21.7874 113.42 22.1155C113.209 22.4319 113.104 22.7834 113.104 23.1702C113.104 23.4631 113.162 23.7268 113.279 23.9612C113.408 24.1838 113.613 24.3889 113.895 24.5764C114.176 24.7639 114.539 24.9397 114.984 25.1038C115.441 25.2561 116.004 25.3967 116.672 25.5256C118.043 25.8069 119.268 26.176 120.346 26.6331C121.424 27.0784 122.279 27.6877 122.912 28.4612C123.545 29.2229 123.861 30.2249 123.861 31.467C123.861 32.3108 123.674 33.0842 123.299 33.7874C122.924 34.4905 122.385 35.1057 121.682 35.6331C120.979 36.1487 120.135 36.553 119.15 36.8459C118.178 37.1272 117.082 37.2678 115.863 37.2678C114.094 37.2678 112.594 36.9514 111.363 36.3186C110.145 35.6858 109.219 34.8831 108.586 33.9104C107.965 32.926 107.654 31.9182 107.654 30.887H112.453C112.477 31.5784 112.652 32.135 112.98 32.5569C113.32 32.9788 113.748 33.2834 114.264 33.4709C114.791 33.6584 115.359 33.7522 115.969 33.7522C116.625 33.7522 117.17 33.6643 117.604 33.4885C118.037 33.301 118.365 33.0549 118.588 32.7502C118.822 32.4338 118.939 32.0706 118.939 31.6604ZM137.432 31.6604C137.432 31.2971 137.326 30.969 137.115 30.676C136.904 30.3831 136.512 30.1135 135.938 29.8674C135.375 29.6096 134.561 29.3752 133.494 29.1643C132.533 28.9534 131.637 28.6897 130.805 28.3733C129.984 28.0452 129.27 27.6526 128.66 27.1956C128.062 26.7385 127.594 26.1995 127.254 25.5784C126.914 24.9456 126.744 24.2249 126.744 23.4163C126.744 22.6194 126.914 21.8694 127.254 21.1663C127.605 20.4631 128.104 19.842 128.748 19.303C129.404 18.7522 130.201 18.3245 131.139 18.0198C132.088 17.7034 133.154 17.5452 134.338 17.5452C135.99 17.5452 137.408 17.8088 138.592 18.3362C139.787 18.8635 140.701 19.5901 141.334 20.5159C141.979 21.4299 142.301 22.4729 142.301 23.6448H137.238C137.238 23.1526 137.133 22.7131 136.922 22.3264C136.723 21.928 136.406 21.6174 135.973 21.3948C135.551 21.1604 135 21.0432 134.32 21.0432C133.758 21.0432 133.271 21.1428 132.861 21.342C132.451 21.5295 132.135 21.7874 131.912 22.1155C131.701 22.4319 131.596 22.7834 131.596 23.1702C131.596 23.4631 131.654 23.7268 131.771 23.9612C131.9 24.1838 132.105 24.3889 132.387 24.5764C132.668 24.7639 133.031 24.9397 133.477 25.1038C133.934 25.2561 134.496 25.3967 135.164 25.5256C136.535 25.8069 137.76 26.176 138.838 26.6331C139.916 27.0784 140.771 27.6877 141.404 28.4612C142.037 29.2229 142.354 30.2249 142.354 31.467C142.354 32.3108 142.166 33.0842 141.791 33.7874C141.416 34.4905 140.877 35.1057 140.174 35.6331C139.471 36.1487 138.627 36.553 137.643 36.8459C136.67 37.1272 135.574 37.2678 134.355 37.2678C132.586 37.2678 131.086 36.9514 129.855 36.3186C128.637 35.6858 127.711 34.8831 127.078 33.9104C126.457 32.926 126.146 31.9182 126.146 30.887H130.945C130.969 31.5784 131.145 32.135 131.473 32.5569C131.812 32.9788 132.24 33.2834 132.756 33.4709C133.283 33.6584 133.852 33.7522 134.461 33.7522C135.117 33.7522 135.662 33.6643 136.096 33.4885C136.529 33.301 136.857 33.0549 137.08 32.7502C137.314 32.4338 137.432 32.0706 137.432 31.6604ZM148.365 11.3225H152.83L159.404 30.1135L165.979 11.3225H170.443L161.197 36.9163H157.611L148.365 11.3225ZM145.957 11.3225H150.404L151.213 29.6389V36.9163H145.957V11.3225ZM168.404 11.3225H172.869V36.9163H167.596V29.6389L168.404 11.3225ZM185.93 37.2678C184.453 37.2678 183.129 37.0334 181.957 36.5647C180.785 36.0842 179.789 35.4221 178.969 34.5784C178.16 33.7346 177.539 32.7561 177.105 31.6428C176.672 30.5178 176.455 29.3225 176.455 28.0569V27.3538C176.455 25.9124 176.66 24.594 177.07 23.3987C177.48 22.2034 178.066 21.1663 178.828 20.2874C179.602 19.4084 180.539 18.7346 181.641 18.2659C182.742 17.7854 183.984 17.5452 185.367 17.5452C186.715 17.5452 187.91 17.7678 188.953 18.2131C189.996 18.6584 190.869 19.2913 191.572 20.1116C192.287 20.9319 192.826 21.9163 193.189 23.0647C193.553 24.2014 193.734 25.467 193.734 26.8616V28.9709H178.617V25.5959H188.76V25.2092C188.76 24.5061 188.631 23.8792 188.373 23.3284C188.127 22.7659 187.752 22.3206 187.248 21.9924C186.744 21.6643 186.1 21.5002 185.314 21.5002C184.646 21.5002 184.072 21.6467 183.592 21.9397C183.111 22.2327 182.719 22.6428 182.414 23.1702C182.121 23.6975 181.898 24.3186 181.746 25.0334C181.605 25.7366 181.535 26.51 181.535 27.3538V28.0569C181.535 28.8186 181.641 29.5217 181.852 30.1663C182.074 30.8108 182.385 31.3674 182.783 31.8362C183.193 32.3049 183.686 32.6682 184.26 32.926C184.846 33.1838 185.508 33.3127 186.246 33.3127C187.16 33.3127 188.01 33.137 188.795 32.7854C189.592 32.4221 190.277 31.8772 190.852 31.1506L193.312 33.8225C192.914 34.3967 192.369 34.9475 191.678 35.4749C190.998 36.0022 190.178 36.4358 189.217 36.7756C188.256 37.1038 187.16 37.2678 185.93 37.2678Z" fill="black"/>
</svg>
